<svg width="65" height="60" viewBox="0 0 65 60" fill="none" xmlns="http://www.w3.org/2000/svg">
<path d="M48.0475 26.1272C48.0475 34.2798 40.8877 40.8888 32.0557 40.8888C23.2237 40.8888 16.0639 34.2798 16.0639 26.1272C16.0639 23.8299 16.6489 21.6642 17.6622 19.7261H0V54.2466C0 57.411 2.80479 60 6.23288 60H57.8767C61.3048 60 64.1096 57.411 64.1096 54.2466V19.7261H46.4483C47.4625 21.6642 48.0475 23.8299 48.0475 26.1272Z" fill="#231F20"/>
<path d="M57.8767 0H6.23288C2.80479 0 0 2.58904 0 5.75342V17.2603H19.2908C22.2095 13.6858 26.8325 11.3655 32.0548 11.3655C37.2771 11.3655 41.9001 13.6858 44.8188 17.2603H64.1096V5.75342C64.1096 2.58904 61.3048 0 57.8767 0ZM5.12521 14.5611H2.80479V6.26384C2.80479 4.81233 3.76288 3.56877 5.1261 3.04027L5.12521 14.5611ZM8.92726 14.5611H6.72884V2.76822H8.92726V14.5611ZM12.7284 14.5611H10.53V2.76822H12.7284V14.5611ZM16.5269 6.26384V11.0655V14.5611H14.3312V2.76822H16.5269V6.26384ZM60.8605 11.0655C60.8605 12.997 59.1651 14.5611 57.0753 14.5611H50.9235C48.8328 14.5611 47.1375 12.997 47.1375 11.0655V6.26384C47.1375 4.33233 48.8328 2.76822 50.9235 2.76822H57.0753C59.166 2.76822 60.8605 4.33233 60.8605 6.26384V11.0655Z" fill="#231F20"/>
<path d="M32.0558 39.1629C39.8344 39.1629 46.1403 33.3396 46.1403 26.1609C46.1403 18.9815 39.8353 13.1582 32.0558 13.1582C24.2754 13.1582 17.9695 18.9815 17.9695 26.1609C17.9695 33.3388 24.2754 39.1629 32.0558 39.1629ZM32.0549 15.8015C38.2521 15.8015 43.2776 20.4396 43.2776 26.1609C43.2776 31.8815 38.253 36.5204 32.0549 36.5204C25.8567 36.5204 20.8321 31.8823 20.8321 26.1609C20.833 20.4388 25.8576 15.8015 32.0549 15.8015Z" fill="#231F20"/>
</svg>
