<svg width="65" height="60" viewBox="0 0 65 60" fill="none" xmlns="http://www.w3.org/2000/svg">
<path d="M61.4615 0H4.42888C2.47443 0 0.890388 1.4825 0.890388 3.31167V56.6892C0.890388 58.5175 2.47443 60 4.42888 60H35.1329V36.765H26.7782V27.71H35.1329V21.0317C35.1329 13.2817 40.1905 9.0625 47.5773 9.0625C51.1158 9.0625 54.1566 9.30833 55.0434 9.41917V17.5183L49.92 17.5208C45.9024 17.5208 45.1251 19.3075 45.1251 21.9292V27.7108H54.7059L53.4585 36.7658H45.1251V60H61.4624C63.4159 60 65 58.5175 65 56.6883V3.31167C65 1.4825 63.4159 0 61.4615 0Z" fill="black"/>
</svg>
